<?xml version="1.0" encoding="UTF-8"?>
<svg xmlns="http://www.w3.org/2000/svg" xmlns:xlink="http://www.w3.org/1999/xlink" width="24pt" height="24pt" viewBox="0 0 24 24" version="1.1">
<g id="surface20261853">
<path style=" stroke:none;fill-rule:nonzero;fill:rgb(100%,100%,100%);fill-opacity:1;" d="M 11.984375 2.988281 C 11.433594 2.996094 10.992188 3.449219 11 4 L 11 13.585938 L 9.707031 12.292969 C 9.519531 12.097656 9.257812 11.988281 8.988281 11.992188 C 8.582031 11.992188 8.214844 12.238281 8.0625 12.613281 C 7.910156 12.992188 8 13.421875 8.292969 13.707031 L 11.292969 16.707031 C 11.683594 17.097656 12.316406 17.097656 12.707031 16.707031 L 15.707031 13.707031 C 15.96875 13.457031 16.074219 13.082031 15.980469 12.734375 C 15.890625 12.382812 15.617188 12.109375 15.265625 12.019531 C 14.917969 11.925781 14.542969 12.03125 14.292969 12.292969 L 13 13.585938 L 13 4 C 13.003906 3.730469 12.898438 3.46875 12.707031 3.277344 C 12.515625 3.085938 12.253906 2.980469 11.984375 2.984375 Z M 6 8.5 C 4.355469 8.5 3 9.855469 3 11.5 L 3 18 C 3 19.644531 4.355469 21 6 21 L 18 21 C 19.644531 21 21 19.644531 21 18 L 21 11.5 C 21 9.855469 19.644531 8.5 18 8.5 L 16.5 8.5 C 16.140625 8.496094 15.804688 8.683594 15.621094 8.996094 C 15.441406 9.308594 15.441406 9.691406 15.621094 10.003906 C 15.804688 10.316406 16.140625 10.503906 16.5 10.5 L 18 10.5 C 18.5625 10.5 19 10.9375 19 11.5 L 19 18 C 19 18.5625 18.5625 19 18 19 L 6 19 C 5.4375 19 5 18.5625 5 18 L 5 11.5 C 5 10.9375 5.4375 10.5 6 10.5 L 7.5 10.5 C 7.859375 10.503906 8.195312 10.316406 8.378906 10.003906 C 8.558594 9.691406 8.558594 9.308594 8.378906 8.996094 C 8.195312 8.683594 7.859375 8.496094 7.5 8.5 Z M 6 8.5 "/>
</g>
</svg>
